<svg width="16" height="12" viewBox="0 0 16 12" fill="none" xmlns="http://www.w3.org/2000/svg">
    <path fill-rule="evenodd" clip-rule="evenodd" d="M10.5672 0.432299C9.7562 0.151356 8.89386 0 7.99975 0C5.27533 0 2.84587 1.40529 1.26482 3.6C1.02019 3.93958 0.795869 4.29806 0.593912 4.67316C0.148329 5.50075 0.148407 6.49944 0.594007 7.32702C0.949681 7.98758 1.3747 8.5966 1.85788 9.14163L4.10086 6.89865C4.03455 6.60979 3.99951 6.30899 3.99951 6C3.99951 3.79086 5.79037 2 7.99951 2C8.3085 2 8.6093 2.03503 8.89816 2.10135L10.5672 0.432299ZM10.2836 2.71586L11.9413 1.05824C13.3938 1.88989 14.6068 3.16685 15.4344 4.72703C15.8574 5.52444 15.8668 6.47916 15.4378 7.27331C14.3213 9.33962 11.9143 12 7.99976 12C6.08094 12 4.30844 11.3029 2.8756 10.1239L4.71538 8.28414C5.43808 9.3213 6.63954 10 7.99951 10C10.2087 10 11.9995 8.20914 11.9995 6C11.9995 4.64003 11.3208 3.43857 10.2836 2.71586Z" fill="currentColor"/>
</svg>
