<svg width="16" height="12" viewBox="0 0 16 12" fill="none" xmlns="http://www.w3.org/2000/svg">
    <path fill-rule="evenodd" clip-rule="evenodd" d="M1.26482 3.6C2.84587 1.40529 5.27533 0 7.99975 0C11.1659 0 13.9336 1.89787 15.4344 4.72703C15.8574 5.52444 15.8668 6.47916 15.4378 7.27331C14.3213 9.33962 11.9143 12 7.99976 12C4.85386 12 2.10124 10.1263 0.594007 7.32702C0.148407 6.49944 0.148329 5.50075 0.593912 4.67316C0.795869 4.29806 1.02019 3.93958 1.26482 3.6ZM7.99951 10C10.2087 10 11.9995 8.20914 11.9995 6C11.9995 3.79086 10.2087 2 7.99951 2C5.79037 2 3.99951 3.79086 3.99951 6C3.99951 8.20914 5.79037 10 7.99951 10Z" fill="currentColor"/>
</svg>
